<svg xmlns="http://www.w3.org/2000/svg" width="248.265" height="48.919" viewBox="0 0 248.265 48.919"><defs><style>.a{fill:#2c61a4;}.b{fill:#c30e23;}.c{fill:#4c252e;}.d{fill:#4e262d;}.e{fill:#4d4e4e;}</style></defs><g transform="translate(-70.675 -46.911)"><path class="a" d="M105.811,75.972c-1.106,1.378-6.052,7.55-7.158,8.928a5.245,5.245,0,0,0,0,6.284,3.091,3.091,0,0,0,5.039,0c1.106-1.376,6.052-7.55,7.155-8.924a5.252,5.252,0,0,0,0-6.288,3.088,3.088,0,0,0-5.036,0" transform="translate(-16.651 -17.163)"/><path class="a" d="M112.935,76.382l-21.346-24.8-20.675,24.8a1.132,1.132,0,0,0,.912,1.827.967.967,0,0,0,.789-.4l3.911-4.7,0,0,2.358-2.834H78.9l3.412-4.086L91.63,55,102.9,68.05h-.026l4,4.665,4.4,5.1a1.144,1.144,0,0,0,.875.4.945.945,0,0,0,1.069-1.071,1.13,1.13,0,0,0-.276-.756" transform="translate(0 -2.888)"/><path class="b" d="M129.4,75.631h0c-.065-.039-.13-.075-.2-.109.066.034.132.07.2.109" transform="translate(-36.185 -17.689)"/><path class="c" d="M130.7,76.674a3.7,3.7,0,0,0-.981-.867,3.7,3.7,0,0,1,.981.867" transform="translate(-36.503 -17.865)"/><path class="b" d="M132.847,94.589a3.239,3.239,0,0,1-2.52-1.3c-.678-.853-2.83-3.534-4.633-5.784l2.517-3.141a5.25,5.25,0,0,0,0-6.288c1.1,1.379,6.053,7.55,7.155,8.928a5.252,5.252,0,0,1,0,6.284,3.238,3.238,0,0,1-2.52,1.3" transform="translate(-34.015 -19.268)"/><path class="c" d="M129.255,81.221a5.044,5.044,0,0,0-1.044-3.143,5.044,5.044,0,0,1,1.044,3.143m-3.562,6.285h0c1.114-1.39,2.1-2.617,2.518-3.14l-2.518,3.141" transform="translate(-34.014 -19.269)"/><path class="d" d="M117.4,82.257c.421.523,1.408,1.751,2.521,3.14,1.114-1.389,2.1-2.617,2.518-3.14a5.252,5.252,0,0,0,0-6.287,3.642,3.642,0,0,0-1.177-.976,3.066,3.066,0,0,0-3.858.976,5.256,5.256,0,0,0,0,6.287" transform="translate(-28.243 -17.161)"/><path class="a" d="M212.553,68.4v9.074a.949.949,0,0,1-1.072,1.076.967.967,0,0,1-1.11-1.076V74.967a19.6,19.6,0,0,1-12.813,4.257,19.916,19.916,0,0,1-12.418-3.9q-5.291-4.016-5.29-9.788t5.29-9.79a19.92,19.92,0,0,1,12.418-3.937,21.23,21.23,0,0,1,8.276,1.613,17.246,17.246,0,0,1,6.365,4.436,1.056,1.056,0,0,1,.276.715.982.982,0,0,1-1.114,1.114,1.016,1.016,0,0,1-.834-.4,14.508,14.508,0,0,0-5.591-3.859,19.537,19.537,0,0,0-7.378-1.395A17.874,17.874,0,0,0,186.611,57.4q-4.531,3.363-4.533,8.138,0,4.738,4.533,8.1a17.848,17.848,0,0,0,10.947,3.362,19.566,19.566,0,0,0,7.24-1.333,14.76,14.76,0,0,0,5.572-3.719V70.59H197.557c-.745,0-1.114-.357-1.114-1.077a.984.984,0,0,1,1.114-1.114Z" transform="translate(-67.497 -3.028)"/><path class="a" d="M281.606,53.584a.985.985,0,0,1,1.114,1.115V78.571a.969.969,0,0,1-1.114,1.076.953.953,0,0,1-1.077-1.076V54.7a.97.97,0,0,1,1.077-1.115" transform="translate(-129.741 -4.126)"/><path class="a" d="M328,78.571a.967.967,0,0,1-1.111,1.076H301.379V54.7a1.112,1.112,0,1,1,2.224,0V77.457h23.282A.982.982,0,0,1,328,78.571" transform="translate(-142.631 -4.126)"/><path class="a" d="M385.422,53.584a.985.985,0,0,1,1.114,1.115V78.571a.969.969,0,0,1-1.114,1.076.949.949,0,0,1-1.073-1.076V54.7c0-.745.354-1.115,1.073-1.115" transform="translate(-193.927 -4.126)"/><path class="a" d="M405.786,67.839a.983.983,0,0,1,1.11,1.114q0,3.065,4.4,5.293A22.744,22.744,0,0,0,421.7,76.473a34.914,34.914,0,0,0,10.664-1.354q4.134-1.347,4.138-3.5,0-2.308-3.266-3.421a60.191,60.191,0,0,0-9.669-1.829l-2.03-.281-1.866-.278a73.476,73.476,0,0,1-10.186-1.991q-4.816-1.712-4.812-5.49,0-3.62,5.408-5.492A36.337,36.337,0,0,1,421.7,51.287a24.152,24.152,0,0,1,12.094,2.8Q438.728,56.9,438.727,61a1.112,1.112,0,1,1-2.224,0q0-3.061-4.4-5.291A22.8,22.8,0,0,0,421.7,53.475a34.984,34.984,0,0,0-10.663,1.354q-4.146,1.35-4.142,3.5,0,2.268,3.5,3.462a65.73,65.73,0,0,0,9.554,1.831l3.937.555a59.151,59.151,0,0,1,10.228,1.989q4.614,1.673,4.611,5.453,0,3.62-5.408,5.49A36.253,36.253,0,0,1,421.7,78.665a24.123,24.123,0,0,1-12.1-2.808q-4.933-2.8-4.931-6.9a.984.984,0,0,1,1.114-1.114" transform="translate(-206.492 -2.705)"/><path class="a" d="M509.243,53.584a.985.985,0,0,1,1.113,1.115V78.571a.969.969,0,0,1-1.113,1.076.951.951,0,0,1-1.073-1.076V54.7q0-1.117,1.073-1.115" transform="translate(-270.479 -4.126)"/><path class="a" d="M530.856,53.584a.981.981,0,0,1,1.11,1.115V70.136q0,4.7,5.732,6.684a33,33,0,0,0,18.146,0q5.727-1.989,5.729-6.684V54.7a1.115,1.115,0,1,1,2.231,0V70.136q0,5.568-5.773,8.2a32.76,32.76,0,0,1-22.482,0q-5.81-2.626-5.807-8.2V54.7a.984.984,0,0,1,1.114-1.115" transform="translate(-283.816 -4.126)"/><path class="a" d="M665.9,46.911V74.445a.952.952,0,0,1-1.077,1.076.97.97,0,0,1-1.113-1.076V54.191l-14.8,22.245L634.064,54.191V74.445a.951.951,0,0,1-1.073,1.076.972.972,0,0,1-1.117-1.076V46.911l17.032,25.5Z" transform="translate(-346.958)"/><path class="e" d="M163.477,160.368c0,1.211-1.02,1.976-2.484,1.976h-2.741a.269.269,0,0,1-.294-.3v-7.057a.268.268,0,0,1,.294-.3h2.384c1.386,0,2.455.689,2.455,1.933a1.826,1.826,0,0,1-1.531,1.816,1.938,1.938,0,0,1,1.918,1.923m-4.659-4.963v2.752H160.2c1.445,0,2.015-.719,2.015-1.473,0-.853-.745-1.28-1.576-1.28Zm3.769,4.939c0-.8-.674-1.5-2.153-1.5h-1.616v2.8h2.175c.92,0,1.594-.493,1.594-1.293" transform="translate(-53.962 -66.637)"/><path class="e" d="M179.617,162.049v-7.056a.272.272,0,0,1,.294-.3h.272a.269.269,0,0,1,.294.3v7.056a.268.268,0,0,1-.294.3h-.272a.271.271,0,0,1-.294-.3" transform="translate(-67.353 -66.637)"/><path class="e" d="M189.052,158.336a3.961,3.961,0,0,1,3.94-3.961,4.625,4.625,0,0,1,2.536.626.289.289,0,0,1,.1.406l-.078.151a.253.253,0,0,1-.4.111,3.863,3.863,0,0,0-2.157-.513,3.169,3.169,0,0,0,.168,6.335,3.384,3.384,0,0,0,1.989-.588v-1.773h-1.914a.27.27,0,0,1-.294-.294V158.7a.276.276,0,0,1,.294-.3h2.4a.272.272,0,0,1,.3.3v2.315a.524.524,0,0,1-.265.438,4.136,4.136,0,0,1-2.544.812,3.943,3.943,0,0,1-4.074-3.933" transform="translate(-73.186 -66.439)"/><path class="e" d="M223.638,158.321a3.965,3.965,0,1,1,3.967,3.948,3.971,3.971,0,0,1-3.967-3.948m7.055,0a3.087,3.087,0,1,0-3.088,3.169,3.118,3.118,0,0,0,3.088-3.169" transform="translate(-94.569 -66.439)"/><path class="e" d="M251.631,162.049v-7.056a.273.273,0,0,1,.3-.3h.137a.442.442,0,0,1,.362.175l4.362,5.9v-5.778a.27.27,0,0,1,.294-.3h.283a.272.272,0,0,1,.287.3v7.056a.264.264,0,0,1-.287.3h-.142a.416.416,0,0,1-.362-.176l-4.369-5.921v5.8a.273.273,0,0,1-.3.3h-.268a.272.272,0,0,1-.3-.3" transform="translate(-111.875 -66.637)"/><path class="e" d="M285.232,158.321a3.883,3.883,0,0,1,4.138-3.946,3.942,3.942,0,0,1,2.268.659.274.274,0,0,1,.108.391l-.078.143a.263.263,0,0,1-.4.11,3.756,3.756,0,0,0-1.9-.523,3.169,3.169,0,1,0,0,6.335,3.756,3.756,0,0,0,1.9-.523.261.261,0,0,1,.4.108l.078.143c.078.163.067.281-.052.358a4.166,4.166,0,0,1-6.462-3.255" transform="translate(-132.649 -66.439)"/><path class="e" d="M309.341,162.049v-7.056a.273.273,0,0,1,.3-.3h.272a.272.272,0,0,1,.294.3v6.644h3.289a.263.263,0,0,1,.286.279v.132a.266.266,0,0,1-.286.3h-3.855a.272.272,0,0,1-.3-.3" transform="translate(-147.554 -66.637)"/><path class="e" d="M324.561,158.321a3.965,3.965,0,1,1,3.966,3.948,3.97,3.97,0,0,1-3.966-3.948m7.058,0a3.085,3.085,0,1,0-3.092,3.169,3.118,3.118,0,0,0,3.092-3.169" transform="translate(-156.964 -66.439)"/><path class="e" d="M352.269,159.548v-4.555a.27.27,0,0,1,.294-.3h.276a.269.269,0,0,1,.29.3v4.555a2.125,2.125,0,1,0,4.25,0v-4.555a.273.273,0,0,1,.3-.3h.268a.271.271,0,0,1,.3.3v4.555a2.988,2.988,0,0,1-5.974,0" transform="translate(-174.094 -66.638)"/><path class="e" d="M376.368,162.049v-7.056a.268.268,0,0,1,.294-.3h2.1a3.825,3.825,0,1,1,0,7.648h-2.1a.268.268,0,0,1-.294-.3m2.391-.411a3.118,3.118,0,0,0,0-6.231h-1.527v6.231Z" transform="translate(-188.993 -66.637)"/><path class="e" d="M398,172.272a.655.655,0,1,1,1.311,0,.655.655,0,0,1-1.311,0" transform="translate(-202.366 -77.098)"/><path class="e" d="M425.1,160.368c0,1.211-1.013,1.976-2.477,1.976h-2.745a.27.27,0,0,1-.295-.3v-7.057a.27.27,0,0,1,.295-.3h2.384c1.39,0,2.458.689,2.458,1.933a1.826,1.826,0,0,1-1.531,1.816,1.934,1.934,0,0,1,1.911,1.923m-4.652-4.963v2.752h1.378c1.441,0,2.008-.719,2.008-1.473,0-.853-.741-1.28-1.572-1.28Zm3.769,4.939c0-.8-.678-1.5-2.153-1.5h-1.617v2.8h2.176c.916,0,1.594-.493,1.594-1.293" transform="translate(-215.708 -66.637)"/><path class="e" d="M441.24,162.049v-7.056a.272.272,0,0,1,.294-.3h.276a.27.27,0,0,1,.294.3v7.056a.27.27,0,0,1-.294.3h-.276a.272.272,0,0,1-.294-.3" transform="translate(-229.1 -66.637)"/><path class="e" d="M450.664,158.336a3.965,3.965,0,0,1,3.948-3.961,4.628,4.628,0,0,1,2.533.626.285.285,0,0,1,.1.406l-.078.151a.253.253,0,0,1-.4.111,3.854,3.854,0,0,0-2.149-.513,3.123,3.123,0,0,0-3.062,3.166,3.085,3.085,0,0,0,3.222,3.169,3.384,3.384,0,0,0,1.989-.588v-1.773h-1.914a.269.269,0,0,1-.291-.294V158.7a.275.275,0,0,1,.291-.3h2.406a.27.27,0,0,1,.295.3v2.315a.538.538,0,0,1-.261.438,4.15,4.15,0,0,1-2.544.812,3.946,3.946,0,0,1-4.079-3.933" transform="translate(-234.926 -66.439)"/><path class="e" d="M485.261,158.321a3.967,3.967,0,1,1,3.967,3.948,3.973,3.973,0,0,1-3.967-3.948m7.058,0a3.089,3.089,0,1,0-3.091,3.169,3.118,3.118,0,0,0,3.091-3.169" transform="translate(-256.315 -66.439)"/><path class="e" d="M513.253,162.049v-7.056a.272.272,0,0,1,.294-.3h.142a.448.448,0,0,1,.365.175l4.355,5.9v-5.778a.273.273,0,0,1,.3-.3h.287a.266.266,0,0,1,.279.3v7.056a.26.26,0,0,1-.279.3h-.145a.413.413,0,0,1-.362-.176l-4.368-5.921v5.8a.27.27,0,0,1-.294.3h-.276a.271.271,0,0,1-.294-.3" transform="translate(-273.621 -66.637)"/><path class="e" d="M548.387,162.049v-7.056a.27.27,0,0,1,.294-.3h2.1a3.825,3.825,0,1,1,0,7.648h-2.1a.27.27,0,0,1-.294-.3m2.391-.411a3.118,3.118,0,0,0,0-6.231h-1.531v6.231Z" transform="translate(-295.343 -66.637)"/><path class="e" d="M569.262,162.008l2.778-7.069a.328.328,0,0,1,.335-.242h.529a.333.333,0,0,1,.335.242l2.786,7.069c.078.208-.011.337-.231.337h-.261a.342.342,0,0,1-.35-.24l-.544-1.4h-3.989l-.547,1.4a.319.319,0,0,1-.336.24h-.275c-.22,0-.305-.128-.231-.337m5.114-2.013-1.736-4.477-1.725,4.477Z" transform="translate(-308.233 -66.637)"/><path class="e" d="M595.176,154.992v.132a.264.264,0,0,1-.294.281h-2.373v6.643a.27.27,0,0,1-.294.3h-.272a.27.27,0,0,1-.294-.3v-6.643h-2.362a.264.264,0,0,1-.294-.281v-.132a.27.27,0,0,1,.294-.3h5.595a.27.27,0,0,1,.294.3" transform="translate(-320.447 -66.637)"/><path class="e" d="M607.117,162.008l2.779-7.069a.329.329,0,0,1,.339-.242h.521a.325.325,0,0,1,.336.242l2.786,7.069c.082.208-.008.337-.224.337h-.265a.342.342,0,0,1-.35-.24l-.547-1.4h-3.986l-.548,1.4a.323.323,0,0,1-.339.24h-.272c-.22,0-.305-.128-.231-.337m5.114-2.013-1.735-4.477-1.728,4.477Z" transform="translate(-331.636 -66.637)"/><path class="e" d="M630.283,172.272a.654.654,0,1,1,1.307,0,.654.654,0,1,1-1.307,0" transform="translate(-345.974 -77.098)"/></g></svg>