<svg xmlns="http://www.w3.org/2000/svg" width="530.189" height="231.857" viewBox="0 0 530.189 231.857"><defs><style>.a,.d,.e{fill:none;}.a,.d{stroke:#271e56;stroke-miterlimit:10;}.a{stroke-width:0.25px;stroke-dasharray:1.5;}.b,.c{fill:#3b3b3b;font-family:Roboto-Regular, Roboto;}.b{font-size:11px;}.c{font-size:9px;}.d{stroke-width:0.5px;}.e{stroke:#e27323;stroke-linecap:round;stroke-linejoin:round;stroke-width:3px;}</style></defs><g transform="translate(-86.116 -316.137)"><g transform="translate(87.116 316.137)"><line class="a" y1="209.586" transform="translate(66.987)"/><line class="a" y1="209.586" transform="translate(106.026)"/><line class="a" y1="209.586" transform="translate(145.065)"/><line class="a" y1="209.586" transform="translate(184.104)"/><line class="a" y1="209.586" transform="translate(223.143)"/><line class="a" y1="209.586" transform="translate(262.182)"/><line class="a" y1="209.586" transform="translate(301.221)"/><line class="a" y1="209.586" transform="translate(340.26)"/><line class="a" y1="209.586" transform="translate(379.299)"/><line class="a" y1="209.586" transform="translate(418.338)"/><line class="a" y1="209.586" transform="translate(457.377)"/><line class="a" y1="209.586" transform="translate(496.416)"/><text class="b" transform="translate(8.628 183.358)"><tspan x="-3.096" y="0">5</tspan></text><text class="c" transform="translate(5 149.55)"><tspan x="-5.069" y="0">10</tspan></text><text class="c" transform="translate(5 118.742)"><tspan x="-5.067" y="0">15</tspan></text><text class="c" transform="translate(5 87.934)"><tspan x="-5.069" y="0">20</tspan></text><text class="c" transform="translate(5 57.125)"><tspan x="-5.067" y="0">25</tspan></text><text class="c" transform="translate(5 26.317)"><tspan x="-5.069" y="0">30</tspan></text><text class="b" transform="translate(61.354 228.857)"><tspan x="-9.185" y="0">Jan</tspan></text><text class="b" transform="translate(104.545 228.857)"><tspan x="-9.182" y="0">Feb</tspan></text><text class="b" transform="translate(144.582 228.857)"><tspan x="-9.74" y="0">Mar</tspan></text><text class="b" transform="translate(182.623 228.857)"><tspan x="-8.572" y="0">Apr</tspan></text><text class="b" transform="translate(221.564 228.857)"><tspan x="-10.581" y="0">May</tspan></text><text class="b" transform="translate(260.702 228.857)"><tspan x="-9.287" y="0">Jun</tspan></text><text class="b" transform="translate(300.835 228.857)"><tspan x="-7.546" y="0">Jul</tspan></text><text class="b" transform="translate(339.777 228.857)"><tspan x="-9.813" y="0">Aug</tspan></text><text class="b" transform="translate(377.817 228.857)"><tspan x="-9.464" y="0">Sep</tspan></text><text class="b" transform="translate(416.858 228.857)"><tspan x="-8.57" y="0">Oct</tspan></text><text class="b" transform="translate(456.895 228.857)"><tspan x="-9.775" y="0">Nov</tspan></text><text class="b" transform="translate(494.934 228.857)"><tspan x="-9.45" y="0">Dec</tspan></text><line class="d" x2="4.85" transform="translate(25.167 179.732)"/><line class="d" x2="4.85" transform="translate(25.167 148.448)"/><line class="d" x2="4.85" transform="translate(25.167 117.164)"/><line class="d" x2="4.85" transform="translate(25.167 85.881)"/><line class="d" x2="4.85" transform="translate(25.167 54.597)"/><line class="d" x2="4.85" transform="translate(25.167 23.313)"/><line class="a" x2="497.353" transform="translate(30.336 179.732)"/><line class="a" x2="497.353" transform="translate(30.336 148.448)"/><line class="a" x2="497.353" transform="translate(30.336 117.164)"/><line class="a" x2="497.353" transform="translate(30.336 85.881)"/><line class="a" x2="497.353" transform="translate(30.336 54.597)"/><line class="a" x2="497.353" transform="translate(30.336 23.313)"/><path class="d" d="M101.587,316.137V525.723H598.94" transform="translate(-71.251 -316.137)"/></g><path class="e" d="M101.587,496.546l75.691-61.138h78.077l39.039-62.738h39.039l39.038,31.454,39.04-61.375,39.039,92.659,39.04-31.284h39.038l39.039-31.454H598.94" transform="translate(15.865 29.177)"/></g></svg>