<svg xmlns="http://www.w3.org/2000/svg" width="600.093" height="275.775" viewBox="0 0 600.093 275.775"><defs><style>.a{fill:#3b3b3b;}.a,.d,.f{font-size:14px;}.a,.d,.e{font-family:Helvetica;}.b{fill:#9ac7d7;}.b,.c{opacity:0.2;}.c{fill:#a7a7a7;}.d,.e{fill:#3e3e3e;}.e{font-size:13px;}.f,.g{fill:#e27323;}.f{font-family:Roboto-Bold, Roboto;font-weight:700;}.h{fill:#9b9b9b;}</style></defs><g transform="translate(-238.417 -315.205)"><text class="a" transform="translate(307.417 340.946)"><tspan x="-49.021" y="0">Gaming</tspan></text><text class="a" transform="translate(307.417 380.567)"><tspan x="-38.131" y="0">Media</tspan></text><text class="a" transform="translate(307.417 420.189)"><tspan x="-53.669" y="0">Wireless</tspan></text><text class="a" transform="translate(307.417 459.81)"><tspan x="-68.469" y="0">Electronics</tspan></text><text class="a" transform="translate(307.417 499.431)"><tspan x="-28.786" y="0">Toys</tspan></text><g transform="translate(321.895 324.275)"><rect class="b" width="468.691" height="24.16"/><rect class="c" width="468.691" height="24.159" transform="translate(0 39.621)"/><rect class="c" width="468.691" height="24.159" transform="translate(0 79.243)"/><rect class="c" width="468.691" height="24.16" transform="translate(0 118.864)"/><rect class="c" width="468.691" height="24.159" transform="translate(0 158.485)"/><rect class="c" width="468.691" height="24.159" transform="translate(0 198.107)"/></g><text class="a" transform="translate(307.417 541.952)"><tspan x="-35.807" y="0">Audio</tspan></text><text class="d" transform="translate(342.705 587.98)"><tspan x="-20.234" y="0">0%</tspan></text><text class="e" transform="translate(829.862 586.98)"><tspan x="-33.249" y="0">100%</tspan></text><text class="f" transform="translate(500.182 380.21)"><tspan x="0" y="0">40%</tspan></text><text class="f" transform="translate(662.533 420.797)"><tspan x="0" y="0">70%</tspan></text><text class="f" transform="translate(409.343 459.452)"><tspan x="0" y="0">20%</tspan></text><text class="f" transform="translate(737.91 501.006)"><tspan x="0" y="0">80%</tspan></text><text class="f" transform="translate(596.82 539.661)"><tspan x="0" y="0">60%</tspan></text><rect class="g" width="468.691" height="24.16" transform="translate(321.895 324.275)"/><rect class="g" width="170.081" height="24.159" transform="translate(321.895 363.896)"/><rect class="g" width="333.399" height="24.159" transform="translate(321.895 403.518)"/><rect class="g" width="79.242" height="24.16" transform="translate(321.895 443.139)"/><rect class="g" width="410.708" height="24.159" transform="translate(321.895 482.76)"/><rect class="g" width="269.618" height="24.159" transform="translate(321.895 522.382)"/><g transform="translate(320.855 315.205)"><path class="h" d="M797.608,560.338H279.954V315.2h2.259V558.079H797.608Z" transform="translate(-279.954 -315.205)"/></g></g></svg>