<svg xmlns="http://www.w3.org/2000/svg" width="266.365" height="266.368" viewBox="0 0 266.365 266.368"><defs><style>.a{fill:#e27323;}.b{fill:#c36210;}.c{fill:#f08b4c;}.d{fill:#815e2e;}.e{fill:#fff;}</style></defs><g transform="translate(-420.18 -104.801)"><path class="a" d="M686.545,238a133.238,133.238,0,1,1-31.9-86.47,133.172,133.172,0,0,1,31.9,86.47Z" transform="translate(0 0)"/><path class="b" d="M563.631,151.534,462.37,238V104.8A132.759,132.759,0,0,1,563.631,151.534Z" transform="translate(91.013 0)"/><path class="c" d="M591.882,175.12,462.37,206.073,563.631,119.6A131.642,131.642,0,0,1,591.882,175.12Z" transform="translate(91.013 31.931)"/><path class="d" d="M629.049,168.14a133.182,133.182,0,0,1-182.215,123.81l49.054-123.81L625.4,137.187A131.858,131.858,0,0,1,629.049,168.14Z" transform="translate(57.496 69.864)"/><circle class="e" cx="36.088" cy="36.088" r="36.088" transform="translate(517.279 201.897)"/></g></svg>