<svg xmlns="http://www.w3.org/2000/svg" width="278.835" height="258.415" viewBox="0 0 278.835 258.415"><defs><style>.a,.e,.h{fill:none;}.a{stroke:#4cc9f0;stroke-miterlimit:10;}.b{fill:#3b3b3b;}.c,.d{fill:#fff;}.c{font-size:40px;font-family:Montserrat-Black, Montserrat;font-weight:800;}.d{font-size:14px;font-family:Roboto-Regular, Roboto;}.e{stroke:#fff;stroke-linecap:round;stroke-linejoin:round;stroke-width:1.5px;}.f{fill:#e27323;}.g{stroke:none;}</style></defs><g transform="translate(-113.834 -103.906)"><g transform="translate(114.334 103.906)"><rect class="a" width="268.451" height="97.109" rx="5.788" transform="translate(0 9.885)"/><line class="a" y1="10.043" x2="10.043" transform="translate(4.735 92.395)"/><rect class="b" width="268.451" height="97.109" rx="5.788" transform="translate(9.884 0)"/><g transform="translate(37.816 7.612)"><text class="c" transform="translate(211.876 39)"><tspan x="-96.4" y="0">1200</tspan></text><text class="d" transform="translate(70.936 49.81)"><tspan x="44.951" y="15">New Customers</tspan></text><g transform="translate(0 11.655)"><g class="e"><path class="g" d="M2.647,0H52.074A2.646,2.646,0,0,1,54.72,2.646V52.073a2.646,2.646,0,0,1-2.646,2.646H2.647A2.647,2.647,0,0,1,0,52.073V2.647A2.647,2.647,0,0,1,2.647,0Z"/><path class="h" d="M2.647.75H52.074a1.9,1.9,0,0,1,1.9,1.9V52.073a1.9,1.9,0,0,1-1.9,1.9H2.647a1.9,1.9,0,0,1-1.9-1.9V2.647A1.9,1.9,0,0,1,2.647.75Z"/></g><ellipse class="e" cx="10.405" cy="10.405" rx="10.405" ry="10.405" transform="translate(16.955 13.784)"/><path class="e" d="M117.8,143.325s4.623-17.3,22.993-17.3,22.478,17.3,22.478,17.3" transform="translate(-113.436 -91.43)"/></g></g></g><g transform="translate(114.334 254.828)"><rect class="a" width="268.45" height="97.109" rx="5.788" transform="translate(0 9.885)"/><line class="a" y1="10.043" x2="10.042" transform="translate(5.802 92.395)"/><rect class="f" width="268.451" height="97.109" rx="5.788" transform="translate(9.884 0)"/><g transform="translate(33.816 7.612)"><text class="c" transform="translate(214.899 39)"><tspan x="-125.48" y="0">+5.0%</tspan></text><text class="d" transform="translate(73.434 49.81)"><tspan x="47.781" y="15" xml:space="preserve">Return  Visitors</tspan></text><g transform="translate(0 11.655)"><g class="e"><path class="g" d="M2.647,0H52.073A2.646,2.646,0,0,1,54.72,2.646V52.073a2.646,2.646,0,0,1-2.646,2.646H2.647A2.647,2.647,0,0,1,0,52.073V2.647A2.647,2.647,0,0,1,2.647,0Z"/><path class="h" d="M2.647.75H52.073a1.9,1.9,0,0,1,1.9,1.9V52.073a1.9,1.9,0,0,1-1.9,1.9H2.647a1.9,1.9,0,0,1-1.9-1.9V2.647A1.9,1.9,0,0,1,2.647.75Z"/></g><g transform="translate(2.618 14.935)"><path class="e" d="M231.2,145.167l14.315-14.315,5.652,5.652,17.662-17.662" transform="translate(-231.199 -118.842)"/><path class="e" d="M241.379,118.842h9.762v10.79" transform="translate(-213.513 -118.842)"/></g></g></g></g></g></svg>