<svg xmlns="http://www.w3.org/2000/svg" width="246.262" height="275.849" viewBox="0 0 246.262 275.849"><defs><style>.a{opacity:0.4;}.b{fill:#d5d5d5;}.c,.e{fill:#3b3b3b;}.c{font-size:11px;font-family:Helvetica;}.d{fill:#e27323;}.f{fill:#9a9a9a;}.g{fill:#bcbcbc;}</style></defs><g transform="translate(-371.884 -180.649)"><g class="a" transform="translate(409.281 230.046)"><rect class="b" width="208.865" height="1.451"/></g><g class="a" transform="translate(409.281 269.004)"><rect class="b" width="208.865" height="1.451"/></g><g class="a" transform="translate(409.281 307.961)"><rect class="b" width="208.865" height="1.451"/></g><g class="a" transform="translate(409.281 346.92)"><rect class="b" width="208.865" height="1.451"/></g><g class="a" transform="translate(409.281 385.877)"><rect class="b" width="208.865" height="1.451"/></g><text class="c" transform="translate(396.648 229.116)"><tspan x="-18.353" y="0">900</tspan></text><text class="c" transform="translate(395.884 188.649)"><tspan x="-23.66" y="0">1100</tspan></text><text class="c" transform="translate(396.648 269.35)"><tspan x="-18.353" y="0">700</tspan></text><text class="c" transform="translate(396.648 309.585)"><tspan x="-18.353" y="0">500</tspan></text><text class="c" transform="translate(396.648 349.82)"><tspan x="-18.353" y="0">300</tspan></text><text class="c" transform="translate(396.648 390.057)"><tspan x="-18.353" y="0">100</tspan></text><text class="c" transform="translate(399.539 430.289)"><tspan x="-6.118" y="0">0</tspan></text><text class="c" transform="translate(447.221 453.498)"><tspan x="-24.471" y="0">2018</tspan></text><text class="c" transform="translate(518.086 453.498)"><tspan x="-24.471" y="0">2019</tspan></text><text class="c" transform="translate(589.147 453.498)"><tspan x="-24.471" y="0">2020</tspan></text><rect class="d" width="20.63" height="202.431" transform="translate(420.323 227.207)"/><rect class="e" width="20.63" height="105.722" transform="translate(440.965 323.916)"/><rect class="d" width="20.63" height="144.406" transform="translate(486.814 285.232)"/><rect class="f" width="20.63" height="241.115" transform="translate(507.456 188.523)"/><rect class="d" width="20.63" height="67.039" transform="translate(553.305 362.599)"/><rect class="e" width="20.63" height="183.089" transform="translate(573.947 246.549)"/><g transform="translate(407.106 182.721)"><path class="g" d="M596.631,430.148H385.591V181.617h1.934v246.6H596.631Z" transform="translate(-385.591 -181.617)"/></g></g></svg>